<?xml version="1.0" encoding="UTF-8"?>
<svg width="532px" height="359px" viewBox="0 0 532 359" version="1.1" xmlns="http://www.w3.org/2000/svg" xmlns:xlink="http://www.w3.org/1999/xlink">
    <!-- Generator: Sketch 47.1 (45422) - http://www.bohemiancoding.com/sketch -->
    <title>remote_115</title>
    <desc>Created with Sketch.</desc>
    <defs></defs>
    <g id="Page-1" stroke="none" stroke-width="1" fill="none" fill-rule="evenodd">
        <g id="Artboard" transform="translate(-58.000000, -101.000000)">
            <g id="本地文件" transform="translate(59.000000, 102.000000)">
                <path d="M19.7752589,11.2524411 C-5.97843626,222.559148 -5.97843626,328.212502 19.7752589,328.212502 C58.4058017,328.212502 79.8246005,28.2626158 152.386124,11.2524411 C224.947648,-5.75773356 70.4450303,328.212502 123.713134,328.212502 C176.981239,328.212502 234.281553,55.410398 308.975628,16.5724018 C383.669702,-22.2655944 252.71913,157.267322 280.106279,204.839645 C307.493428,252.411968 463.322901,176.63442 486.278729,215.114248 C509.234557,253.594075 468.547049,315.298468 404.803417,338.281612 C341.059785,361.264755 303.93908,373.964164 294.5,307.562835 C285.06092,241.161506 305.13521,85.9236832 336.054913,31.6646508 C356.668048,-4.50803751 421.475672,-9.53878716 530.477784,16.5724018" id="115_2" stroke="#FF0000"></path>
                <text id="网络svg-115" transform="translate(420.868780, 116.885354) rotate(-24.000000) translate(-420.868780, -116.885354) " font-family="PingFangSC-Regular, PingFang SC" font-size="36" font-weight="normal" fill="#000000">
                    <tspan x="325.23478" y="129.885354">网络svg 115</tspan>
                </text>
            </g>
        </g>
    </g>
</svg>